<?xml version="1.0" encoding="UTF-8" standalone="no"?>
<!-- Created with Inkscape (http://www.inkscape.org/) -->
<svg
   xmlns:dc="http://purl.org/dc/elements/1.1/"
   xmlns:cc="http://creativecommons.org/ns#"
   xmlns:rdf="http://www.w3.org/1999/02/22-rdf-syntax-ns#"
   xmlns:svg="http://www.w3.org/2000/svg"
   xmlns="http://www.w3.org/2000/svg"
   xmlns:sodipodi="http://sodipodi.sourceforge.net/DTD/sodipodi-0.dtd"
   xmlns:inkscape="http://www.inkscape.org/namespaces/inkscape"
   width="48"
   height="48"
   id="svg2619"
   sodipodi:version="0.32"
   inkscape:version="0.46"
   sodipodi:docname="mqpatch_x.svg"
   inkscape:output_extension="org.inkscape.output.svg.inkscape"
   version="1.0">
  <defs
     id="defs2621">
    <inkscape:perspective
       sodipodi:type="inkscape:persp3d"
       inkscape:vp_x="0 : 526.18109 : 1"
       inkscape:vp_y="0 : 1000 : 0"
       inkscape:vp_z="744.09448 : 526.18109 : 1"
       inkscape:persp3d-origin="372.04724 : 350.78739 : 1"
       id="perspective2627" />
  </defs>
  <sodipodi:namedview
     id="base"
     pagecolor="#ffffff"
     bordercolor="#666666"
     borderopacity="1.0"
     inkscape:pageopacity="0.0"
     inkscape:pageshadow="2"
     inkscape:zoom="9.7027107"
     inkscape:cx="18.782372"
     inkscape:cy="23.986094"
     inkscape:document-units="px"
     inkscape:current-layer="layer1"
     showgrid="false"
     inkscape:window-width="823"
     inkscape:window-height="672"
     inkscape:window-x="19"
     inkscape:window-y="44"
     showguides="true"
     inkscape:guide-bbox="true" />
  <metadata
     id="metadata2624">
    <rdf:RDF>
      <cc:Work
         rdf:about="">
        <dc:format>image/svg+xml</dc:format>
        <dc:type
           rdf:resource="http://purl.org/dc/dcmitype/StillImage" />
      </cc:Work>
    </rdf:RDF>
  </metadata>
  <g
     inkscape:label="Calque 1"
     inkscape:groupmode="layer"
     id="layer1"
     transform="translate(-350.76531,-433.43361)">
    <g
       id="g4944"
       transform="matrix(6.9369032e-2,0,0,6.9369032e-2,353.05599,425.42863)">
      <path
         id="path3404"
         d="M 225.71429,672.36218 L 180,806.6479 L 434.28571,798.07647 L 382.85714,672.36218"
         style="fill:#a05a2c;fill-opacity:1;fill-rule:evenodd;stroke:#000000;stroke-width:1px;stroke-linecap:butt;stroke-linejoin:miter;stroke-opacity:1" />
      <path
         sodipodi:nodetypes="ccccscsccccc"
         d="M 573.71428,669.50504 L 473.71428,483.79075 C 473.71428,483.79075 405.14284,375.21933 405.14284,375.21933 L 545.14285,400.93361 C 545.14285,400.93361 510.85713,372.36219 422.2857,280.93361 C 333.71428,189.50504 313.71428,123.79076 314,125.21933 C 314.28571,126.6479 294.28571,192.36218 205.71429,283.79075 C 117.14286,375.21933 82.857143,403.79075 82.857143,403.79075 L 231.42858,380.93361 L 154.28571,500.93361 L 54.285714,672.36218 L 573.71428,669.50504 z"
         style="fill:#44aa00;fill-rule:evenodd;stroke:#338000;stroke-width:20;stroke-linecap:butt;stroke-linejoin:round;stroke-miterlimit:4;stroke-dasharray:none;stroke-opacity:1"
         id="path2629" />
      <path
         transform="matrix(0.7678571,0,0,0.7678571,37.806122,95.726935)"
         d="M 162.85714,492.36218 A 78.571426,80 0 1 1 5.7142868,492.36218 A 78.571426,80 0 1 1 162.85714,492.36218 z"
         sodipodi:ry="80"
         sodipodi:rx="78.571426"
         sodipodi:cy="492.36218"
         sodipodi:cx="84.285713"
         id="path3406"
         style="opacity:1;fill:#ff0000;fill-opacity:1"
         sodipodi:type="arc" />
      <path
         transform="matrix(0.7241379,0,0,0.7241379,81.970447,72.769865)"
         d="M 462.85714,346.64789 A 82.85714,82.85714 0 1 1 297.14286,346.64789 A 82.85714,82.85714 0 1 1 462.85714,346.64789 z"
         sodipodi:ry="82.85714"
         sodipodi:rx="82.85714"
         sodipodi:cy="346.64789"
         sodipodi:cx="380"
         id="path3408"
         style="opacity:1;fill:#0000ff;fill-opacity:1"
         sodipodi:type="arc" />
      <path
         transform="matrix(0.9038462,0,0,0.8269231,-48.461539,96.370381)"
         d="M 565.71427,598.07648 A 74.285713,74.285713 0 1 1 417.14285,598.07648 A 74.285713,74.285713 0 1 1 565.71427,598.07648 z"
         sodipodi:ry="74.285713"
         sodipodi:rx="74.285713"
         sodipodi:cy="598.07648"
         sodipodi:cx="491.42856"
         id="path3410"
         style="opacity:1;fill:#ffff00;fill-opacity:1"
         sodipodi:type="arc" />
    </g>
  </g>
</svg>
