<?xml version="1.0" encoding="UTF-8" standalone="no"?>
<svg id="svg2" xmlns:rdf="http://www.w3.org/1999/02/22-rdf-syntax-ns#" xmlns="http://www.w3.org/2000/svg" viewBox="0 0 32 32" height="100%" width="100%" version="1.0" xmlns:cc="http://creativecommons.org/ns#" xmlns:dc="http://purl.org/dc/elements/1.1/">
 <title id="title3197">QPop</title>
 <defs id="defs4">
  <linearGradient id="linearGradient3719" y2="8.9479" gradientUnits="userSpaceOnUse" y1="18.251" x2="19.394" x1="16.874">
   <stop id="stop3711" stop-color="#C00" offset="0"/>
   <stop id="stop3713" stop-color="#ff0b0b" offset="1"/>
  </linearGradient>
 </defs>
 <metadata id="metadata7">
  <rdf:RDF>
   <cc:Work rdf:about="">
    <dc:format>image/svg+xml</dc:format>
    <dc:type rdf:resource="http://purl.org/dc/dcmitype/StillImage"/>
    <dc:title>QPop</dc:title>
    <dc:date>2010-10-17</dc:date>
    <dc:creator>
     <cc:Agent>
      <dc:title>Peer Sommerlund</dc:title>
     </cc:Agent>
    </dc:creator>
    <dc:description>QPop icon for TortoiseHg</dc:description>
    <cc:license rdf:resource="http://creativecommons.org/licenses/by-sa/3.0/"/>
   </cc:Work>
   <cc:License rdf:about="http://creativecommons.org/licenses/by-sa/3.0/">
    <cc:permits rdf:resource="http://creativecommons.org/ns#Reproduction"/>
    <cc:permits rdf:resource="http://creativecommons.org/ns#Distribution"/>
    <cc:requires rdf:resource="http://creativecommons.org/ns#Notice"/>
    <cc:requires rdf:resource="http://creativecommons.org/ns#Attribution"/>
    <cc:permits rdf:resource="http://creativecommons.org/ns#DerivativeWorks"/>
    <cc:requires rdf:resource="http://creativecommons.org/ns#ShareAlike"/>
   </cc:License>
  </rdf:RDF>
 </metadata>
 <g id="stack" stroke-linejoin="miter" stroke="#2e3436" stroke-linecap="butt" stroke-width="1px" fill="#eeeeec">
  <path id="path3375" d="m3.9976,27.334,20,0,5.3328-5.3328-19.998,0-5.3348,5.3328z"/>
  <path id="path3378" d="m3.9976,23.334,20,0,5.3328-5.3328-19.998,0-5.3348,5.3328z"/>
 </g>
 <g id="arrow-up" stroke-linejoin="miter" stroke-linecap="butt">
  <path id="path3696" d="m15.291,13.51-3-0.5,6-2.5,1.5411,4.4914-2.5-1c-2,2.5-0.50416,6.4894-0.50416,6.4894l-2.7448-0.06341c0.09967-3.4834-0.10636-4.8031,1.2079-6.9174z" stroke="#a40000" stroke-width="1" fill="url(#linearGradient3719)"/>
  <path id="arrow-up-inner-shadow" d="m15.676,13.332s-2.4525-0.4167-2.4525-0.4167l4.9119-2.0662,1.2771,3.7121-2.1767-0.86422c-2.1471,2.518-0.73246,6.5184-0.72698,6.5386,0,0-2.1523-0.05295-2.1523-0.05295,0.0099-3.4997-0.06586-4.7514,1.3195-6.8507z" stroke="#ff2626" stroke-width="0.5" fill="none"/>
 </g>
 <g id="patch-removed">
  <path id="path4858" opacity="0.75" stroke-linejoin="miter" d="m6.1642,5.6688s2.4747,1.8011,4.1564,2.5803c2.344,1.0865,10.154,2.1939,14.343,2.4199l5.762-4.0988c-7.421-0.4859-14.426-0.9065-19.262-3.4014l-3.0377,1.9084-1.9625,0.5916z" stroke="#2e3436" stroke-linecap="butt" stroke-width="1px" fill="#729fcf"/>
 </g>
</svg>