<?xml version="1.0" encoding="UTF-8" standalone="no"?>
<svg id="svg2" xmlns:rdf="http://www.w3.org/1999/02/22-rdf-syntax-ns#" xmlns="http://www.w3.org/2000/svg" viewBox="0 0 32 32" height="100%" width="100%" version="1.0" xmlns:cc="http://creativecommons.org/ns#" xmlns:xlink="http://www.w3.org/1999/xlink" xmlns:dc="http://purl.org/dc/elements/1.1/">
 <title id="title3066">QPush</title>
 <defs id="defs4">
  <linearGradient id="linearGradient3703" x1="15.891" gradientUnits="userSpaceOnUse" y1="3.6791" gradientTransform="translate(1.045063,-0.90872269)" x2="15.891" y2="9.9421">
   <stop id="stop3689" stop-color="#72d115" offset="0"/>
   <stop id="stop3691" stop-color="#60b012" offset="1"/>
  </linearGradient>
 </defs>
 <metadata id="metadata7">
  <rdf:RDF>
   <cc:Work rdf:about="">
    <dc:format>image/svg+xml</dc:format>
    <dc:type rdf:resource="http://purl.org/dc/dcmitype/StillImage"/>
    <dc:title>QPush</dc:title>
    <dc:date>2010-10-17</dc:date>
    <dc:creator>
     <cc:Agent>
      <dc:title>Peer Sommerlund</dc:title>
     </cc:Agent>
    </dc:creator>
    <dc:description>QPush icon for TortoiseHg</dc:description>
    <cc:license rdf:resource="http://creativecommons.org/licenses/by-sa/3.0/"/>
   </cc:Work>
   <cc:License rdf:about="http://creativecommons.org/licenses/by-sa/3.0/">
    <cc:permits rdf:resource="http://creativecommons.org/ns#Reproduction"/>
    <cc:permits rdf:resource="http://creativecommons.org/ns#Distribution"/>
    <cc:requires rdf:resource="http://creativecommons.org/ns#Notice"/>
    <cc:requires rdf:resource="http://creativecommons.org/ns#Attribution"/>
    <cc:permits rdf:resource="http://creativecommons.org/ns#DerivativeWorks"/>
    <cc:requires rdf:resource="http://creativecommons.org/ns#ShareAlike"/>
   </cc:License>
  </rdf:RDF>
 </metadata>
 <g id="stack" stroke-linejoin="miter" stroke="#2e3436" stroke-linecap="butt" stroke-width="1px" fill="#eeeeec">
  <path id="path3375" d="m3.9976,27.334,20,0,5.3328-5.3328-19.998,0-5.3348,5.3328z"/>
  <path id="path3378" d="m3.9976,23.334,20,0,5.3328-5.3328-19.998,0-5.3348,5.3328z"/>
 </g>
 <g id="patch-added">
  <path id="path2865" stroke-linejoin="miter" d="m3.9976,19.335,20,0,5.3328-5.3328-19.998,0-5.3348,5.3328z" stroke="#2e3436" stroke-linecap="butt" stroke-width="1px" fill="#b1cae4"/>
 </g>
 <g id="arrow-down" stroke-linejoin="miter" stroke-linecap="butt">
  <path id="path2897" d="m17.839,7.7603,2.4594,0-3.633,3.5747-3.543-3.5747h2.4158c0.431-3.7075-1.714-5.4747-1.714-5.4747l2.5532-1.0094c1.2634,3.2477,1.5369,3.5867,1.4619,6.4841z" stroke="#4e9a06" stroke-width="1" fill="url(#linearGradient3703)"/>
  <path id="path2899" d="m17.589,8.0024h2.0987l-3.023,2.9916-2.836-2.9916,1.947,0.0494c0.57813-3.3476-1.4913-5.6657-1.4913-5.6657s1.9409-0.78467,1.9409-0.78467c1.3524,3.2278,1.3916,4.036,1.3638,6.401z" stroke="#8ae234" stroke-width="0.5" fill="none"/>
 </g>
</svg>